<?xml version="1.0" encoding="UTF-8"?>
<svg version="1.1" xmlns="http://www.w3.org/2000/svg" width="512" height="512">
<path d="M0 0 C1.74367461 -0.00761181 1.74367461 -0.00761181 3.52257496 -0.0153774 C5.42423771 -0.01612404 5.42423771 -0.01612404 7.36431789 -0.01688576 C8.73221426 -0.02090419 10.10010944 -0.02534304 11.46800321 -0.03016531 C15.22202905 -0.04209521 18.97604205 -0.04777097 22.73008311 -0.05234647 C26.78155041 -0.05831656 30.83300249 -0.06992321 34.8844595 -0.08063698 C44.66931324 -0.10513422 54.454172 -0.11978699 64.23904696 -0.13269705 C67.00592124 -0.13641183 69.77279502 -0.14038485 72.5396688 -0.14444971 C89.74426761 -0.16969609 106.94886728 -0.19173592 124.15348053 -0.20417786 C128.13679984 -0.20710728 132.12011913 -0.21006897 136.10343838 -0.21308327 C137.58838409 -0.21420234 137.58838409 -0.21420234 139.1033287 -0.21534403 C155.11286748 -0.227977 171.12229469 -0.26117333 187.13178141 -0.3028851 C203.59296412 -0.34541957 220.05408991 -0.36888639 236.51532739 -0.37409842 C245.74755875 -0.3775002 254.97961595 -0.38910841 264.21179295 -0.42220116 C272.08072688 -0.4503619 279.94945094 -0.46113153 287.81843133 -0.4500057 C291.82519464 -0.44485906 295.83151964 -0.44744096 299.83821774 -0.47247124 C320.24467315 -0.59308224 340.59153613 -0.20064651 359.1666708 9.38701439 C359.94139736 9.77123558 360.71612392 10.15545677 361.51432705 10.55132103 C368.32559688 14.03571125 374.27598004 18.16193561 380.1041708 23.13701439 C381.03487392 23.9065847 381.96557705 24.67615501 382.9244833 25.46904564 C401.69147114 41.64838474 413.78601373 64.60885866 417.1041708 89.13701439 C417.37721842 93.76605877 417.38303551 98.38246884 417.37159634 103.01862144 C417.3753404 104.39297243 417.37994491 105.76732129 417.38532698 107.14166683 C417.39747931 110.8902134 417.39730576 114.63867021 417.39493823 118.38723195 C417.39452808 122.44128594 417.40558816 126.49531191 417.41505337 130.54935265 C417.43162232 138.48213404 417.43716108 146.4148857 417.43827812 154.34768296 C417.43923068 160.80131323 417.44335131 167.25493376 417.44967937 173.70856094 C417.46728164 192.03512882 417.47651999 210.36167333 417.47501843 228.68824971 C417.47489856 230.16831181 417.47489856 230.16831181 417.47477627 231.67827415 C417.47469451 232.66619738 417.47461275 233.65412061 417.47452851 234.67198091 C417.4737162 250.67028143 417.49284261 266.66848766 417.521053 282.66676093 C417.54983924 299.12244337 417.5635901 315.57807991 417.56186545 332.03378814 C417.56120346 341.26078363 417.56661134 350.48768031 417.58822155 359.71465302 C417.6065092 367.5729275 417.61071893 375.43105839 417.5972027 383.28934503 C417.59071069 387.29165358 417.59041773 391.29368728 417.6079092 395.29596901 C417.69914838 417.60948593 416.32189292 436.92740659 406.1041708 457.13701439 C405.56920986 458.1953347 405.03424892 459.25365501 404.48307705 460.34404564 C391.95516127 483.26682679 369.73941862 500.73683471 344.88694191 508.52595997 C329.30516496 512.92820255 313.73365823 512.85175724 297.69329703 512.77597868 C293.6462172 512.76242772 289.59922479 512.77810409 285.55215359 512.78980064 C277.65408311 512.80804988 269.75626224 512.79975148 261.85819987 512.78171242 C255.43339946 512.76761215 249.00866621 512.76380946 242.58385181 512.76715469 C241.66492346 512.76763214 240.74599511 512.76810958 239.79922044 512.76860149 C237.9317178 512.76962795 236.06421518 512.77068331 234.19671258 512.77176725 C217.733931 512.7803082 201.27126897 512.76374275 184.8085165 512.73393822 C168.87519723 512.70509306 152.94205005 512.69802739 137.00871181 512.7134304 C119.60601268 512.73023113 102.20339499 512.7341885 84.80069369 512.71672004 C82.94147663 512.71487588 81.08225957 512.71304115 79.22304249 512.71121597 C78.30855722 512.71030388 77.39407195 512.70939179 76.451875 512.70845206 C70.04152909 512.70287178 63.63122327 512.70613017 57.22087955 512.71276093 C49.39942162 512.72053113 41.57813236 512.71360938 33.75670818 512.68858588 C29.77459933 512.67617737 25.79275194 512.66983782 21.81063366 512.68112755 C-0.52776213 512.73799261 -19.71475984 511.34030784 -39.8958292 501.13701439 C-40.95414951 500.60205345 -42.01246983 500.06709251 -43.10286045 499.51592064 C-65.80449045 487.10886991 -83.70687389 464.86205219 -91.18098545 440.06670189 C-93.30234372 432.51590413 -95.01601006 425.10300156 -95.03005028 417.23280525 C-95.03450812 416.06850542 -95.03896597 414.90420558 -95.0435589 413.70462394 C-95.04337453 412.43480241 -95.04319017 411.16498088 -95.04300022 409.85667992 C-95.04630219 408.48664568 -95.05002846 407.11661241 -95.0541417 405.74658036 C-95.06413243 401.98676036 -95.06787378 398.22695633 -95.07053101 394.46712494 C-95.07444292 390.40958164 -95.0840208 386.35205088 -95.09274387 382.29451561 C-95.11248596 372.49632615 -95.12257282 362.69813569 -95.13147166 352.89993131 C-95.13585931 348.27990488 -95.14122498 343.65987958 -95.14646053 339.03985405 C-95.16347253 323.67066117 -95.17796425 308.30146899 -95.18520927 292.93226814 C-95.18711902 288.94582938 -95.18903937 284.95939063 -95.19099522 280.97295189 C-95.19147896 279.98220115 -95.1919627 278.99145042 -95.1924611 277.97067693 C-95.2007522 261.93973059 -95.22607369 245.90885909 -95.25857589 229.87794539 C-95.29171087 213.39982621 -95.30966395 196.92174497 -95.31285352 180.44359231 C-95.31501294 171.19974835 -95.32367784 161.95601344 -95.34931469 152.71220207 C-95.37111003 144.83551502 -95.37902905 136.95896352 -95.36934791 129.08224973 C-95.36482828 125.06984413 -95.36655138 121.05771765 -95.38610935 117.04535103 C-95.48878676 94.70422678 -94.12650776 75.37224869 -83.8958292 55.13701439 C-83.36086826 54.07869408 -82.82590733 53.02037376 -82.27473545 51.92998314 C-69.86768472 29.22835314 -47.620867 11.3259697 -22.8255167 3.85185814 C-15.27807256 1.73144205 -7.86656672 0.01831674 0 0 Z " fill="#0099F9" transform="translate(94.89582920074463,-0.13701438903808594)"/>
<path d="M0 0 C10.27741733 5.25736446 15.48121721 16.72607462 21.125 26.3125 C21.40174561 25.82894043 21.67849121 25.34538086 21.96362305 24.84716797 C23.24061619 22.62379136 24.52647558 20.4056641 25.8125 18.1875 C26.46508789 17.04667969 26.46508789 17.04667969 27.13085938 15.8828125 C31.69257289 8.04342335 36.24598034 1.45492413 45.125 -1.6875 C52.55816239 -2.81225484 58.95017509 -2.1063141 65.125 2.3125 C70.86708742 7.2715755 74.77210483 12.60710074 75.5 20.25 C75.36901908 30.41841745 68.84126008 39.97686437 63.75 48.4375 C62.50057912 50.54644686 61.25190686 52.65583737 60.00390625 54.765625 C59.36340332 55.84392578 58.72290039 56.92222656 58.06298828 58.03320312 C54.89522489 63.39341953 51.7920842 68.79052537 48.6875 74.1875 C47.42847256 76.37244605 46.16935758 78.55734166 44.91015625 80.7421875 C43.97260498 82.36979004 43.97260498 82.36979004 43.01611328 84.03027344 C39.26471976 90.54121257 35.50809006 97.04913194 31.75244141 103.55761719 C28.61317754 108.99835336 25.47518503 114.43981477 22.33984375 119.8828125 C15.72653798 131.36045062 9.08748753 142.8221644 2.40307617 154.25854492 C-2.55702469 162.75108259 -7.4743245 171.26796528 -12.375 179.79492188 C-17.482202 188.66926048 -22.67385497 197.49302428 -27.875 206.3125 C-26.93032364 206.30583817 -25.98564728 206.29917633 -25.01234436 206.29231262 C-16.08248572 206.23133257 -7.15266967 206.18644655 1.77735043 206.15706348 C6.36768756 206.1414492 10.95785577 206.12028888 15.5480957 206.08618164 C19.98311065 206.05343635 24.41796372 206.03561516 28.85309029 206.02786827 C30.53986723 206.02235187 32.22663594 206.01158002 33.91334343 205.99530983 C46.71189562 205.8768332 56.13716055 206.44612043 65.88671875 215.6953125 C71.17413361 221.87780457 74.23860086 229.83497716 74.4375 237.9375 C74.49357422 239.41089844 74.49357422 239.41089844 74.55078125 240.9140625 C74.1474486 244.13332312 73.43656168 246.11744294 72.09838867 249.02490234 C71.73098068 249.82954926 71.36357269 250.63419617 70.98503113 251.46322632 C70.70122086 252.07348663 70.41741058 252.68374695 70.125 253.3125 C42.26522214 253.40598431 14.40546783 253.47649939 -13.45443535 253.51974869 C-26.39057537 253.54036476 -39.32661788 253.56846731 -52.26269531 253.61425781 C-63.53914078 253.65415457 -74.81551561 253.67993975 -86.09202969 253.68885398 C-92.06163409 253.69406386 -98.03103644 253.70628949 -104.00057602 253.73542023 C-109.62299666 253.76263395 -115.24513259 253.77093285 -120.86761284 253.76493073 C-122.92750154 253.76602829 -124.98740007 253.77394643 -127.04723167 253.7893219 C-149.0006595 253.94510999 -149.0006595 253.94510999 -157.27734375 247.41796875 C-162.41177316 241.00319817 -165.5885362 235.34555346 -165.28125 226.93359375 C-164.25030528 220.28201771 -161.20664535 214.97927137 -155.9375 210.8125 C-150.7788721 207.16862321 -145.78373862 206.0351623 -139.52514648 206.35864258 C-138.28623154 206.4130098 -137.04731659 206.46737701 -135.77085876 206.52339172 C-135.11566694 206.5548913 -134.46047512 206.58639088 -133.785429 206.61884499 C-129.53330096 206.80271828 -125.27710716 206.86316079 -121.02207851 206.94876575 C-117.2996689 207.03064406 -113.58731954 207.15324927 -109.86987305 207.36499023 C-93.65767219 208.80892719 -93.65767219 208.80892719 -79.31124878 203.15408325 C-74.96527697 197.6749775 -72.33734372 191.5593072 -69.91928101 185.04006958 C-68.62976872 181.6719776 -67.01818045 178.85240783 -65.10546875 175.80078125 C-64.59822266 174.93646484 -64.09097656 174.07214844 -63.56835938 173.18164062 C-63.07142578 172.33794922 -62.57449219 171.49425781 -62.0625 170.625 C-56.94087877 161.8874328 -51.8883798 153.1124168 -46.875 144.3125 C-41.92136215 135.61839338 -36.93083762 126.94774925 -31.875 118.3125 C-26.95233642 109.89617213 -22.05770403 101.46424995 -17.20556641 93.00708008 C-16.49219322 91.76455999 -15.77769707 90.52268387 -15.06201172 89.28149414 C-14.06415499 87.55019624 -13.07104762 85.81616364 -12.078125 84.08203125 C-11.50739258 83.08792236 -10.93666016 82.09381348 -10.34863281 81.06958008 C-9.61918457 79.70482544 -9.61918457 79.70482544 -8.875 78.3125 C-8.42705078 77.47452881 -7.97910156 76.63655762 -7.51757812 75.77319336 C-6.61963865 73.28276803 -6.61963865 73.28276803 -7.77441406 70.81152344 C-8.30776367 69.94043945 -8.84111328 69.06935547 -9.390625 68.171875 C-10.27186035 66.7010144 -10.27186035 66.7010144 -11.17089844 65.20043945 C-11.81575195 64.16491943 -12.46060547 63.12939941 -13.125 62.0625 C-14.08841309 60.46571411 -14.08841309 60.46571411 -15.07128906 58.83666992 C-16.37499848 56.6769749 -17.68585322 54.52157666 -19.00390625 52.37060547 C-21.58783319 48.1474493 -24.11057682 43.88975279 -26.625 39.625 C-27.23263184 38.61228027 -27.23263184 38.61228027 -27.85253906 37.57910156 C-32.47117566 29.81230024 -34.41820321 23.60544243 -32.22265625 14.65234375 C-30.08033421 8.55638017 -27.22816956 4.88521008 -21.875 1.3125 C-20.9675 0.69375 -20.06 0.075 -19.125 -0.5625 C-12.69951199 -2.78670739 -6.29534953 -2.58540231 0 0 Z " fill="#FCFEFE" transform="translate(232.875,89.6875)"/>
<path d="M0 0 C0.3810791 0.66193359 0.7621582 1.32386719 1.15478516 2.00585938 C8.0740445 14.02101781 15.00389778 26.02936064 22 38 C28.73688274 49.52964741 35.41290162 61.09385322 42.078125 72.66503906 C44.71156526 77.23475374 47.34894712 81.80218811 49.98632812 86.36962891 C51.87781259 89.6465926 53.76725903 92.92472347 55.65625 96.203125 C57.66964826 99.69709652 59.68896049 103.18740302 61.71875 106.671875 C62.45834707 107.9479087 63.19793184 109.22394954 63.9375 110.5 C64.54464844 111.5415625 65.15179688 112.583125 65.77734375 113.65625 C67 116 67 116 67 118 C67.82161621 117.99111755 68.64323242 117.98223511 69.48974609 117.9730835 C77.25734524 117.89271884 85.02474095 117.83192512 92.79264832 117.79275131 C96.78561229 117.77193407 100.77823086 117.74372511 104.77099609 117.69824219 C108.62896081 117.6545731 112.48659467 117.63081885 116.3447876 117.62049103 C117.81192224 117.61313718 119.27904009 117.59877712 120.74603271 117.57707977 C130.39927542 117.44006739 137.09811496 117.87796031 144.75 124.3125 C149.58144191 130.08338895 152.45133127 135.85501118 152.33984375 143.4609375 C151.50723969 149.68154255 148.28735585 155.16455882 143.75 159.4375 C134.46443548 166.20590898 123.89159102 165.53451912 112.9375 165.6875 C111.29229136 165.72072508 109.64710783 165.75521941 108.00195312 165.79101562 C104.00144183 165.87532493 100.00098151 165.94241132 96 166 C96.40726318 166.70382812 96.81452637 167.40765625 97.23413086 168.1328125 C97.80526611 169.12023437 98.37640137 170.10765625 98.96484375 171.125 C99.59640381 172.21651367 100.22796387 173.30802734 100.87866211 174.43261719 C102.25873992 176.82073855 103.63276012 179.21220723 105.00219727 181.60644531 C109.38845933 189.26859043 109.38845933 189.26859043 114 196.796875 C119.17803431 205.08965041 121.79876353 212.01112168 120 222 C118.19392473 228.73173509 113.5891395 233.06690183 108 237 C102.0075359 239.93248243 95.17507145 239.93839549 88.875 237.875 C79.41702009 233.63294571 75.31391515 226.07272383 70.5 217.25 C69.80239121 215.99670653 69.10322509 214.74427877 68.40258789 213.49267578 C66.96389849 210.92080709 65.53105925 208.34581366 64.10205078 205.76855469 C60.94924966 200.09789281 57.69154503 194.48796996 54.4375 188.875 C53.19633257 186.72672541 51.95544726 184.5782878 50.71484375 182.4296875 C50.10237793 181.36975586 49.48991211 180.30982422 48.85888672 179.21777344 C45.73675395 173.81329355 42.61858796 168.40652588 39.5 163 C38.25001878 160.8333225 37.00001879 158.66665583 35.75 156.5 C28.25 143.5 28.25 143.5 26.37475586 140.24951172 C25.12564482 138.08442929 23.87645871 135.91939018 22.62719727 133.75439453 C19.48797691 128.31384294 16.35009437 122.87252784 13.21484375 117.4296875 C12.59013184 116.34582764 11.96541992 115.26196777 11.32177734 114.14526367 C10.07232712 111.97677627 8.82394273 109.80767438 7.57666016 107.63793945 C4.46339547 102.2309276 1.32123699 96.84439521 -1.87890625 91.48828125 C-13.81332001 71.46565187 -23.34771048 52.04118628 -17.56274414 28.13769531 C-15.50351351 20.47970527 -9.7974526 0 0 0 Z " fill="#FDFEFE" transform="translate(289,178)"/>
<path d="M0 0 C2.53200106 2.40379847 4.65308592 5.04560257 6.8515625 7.7578125 C-17.54097013 51.95407881 -17.54097013 51.95407881 -28.0234375 57.1953125 C-35.83964766 58.60223033 -41.82719648 58.29499501 -48.8828125 54.37890625 C-55.00775166 49.99640668 -58.26383236 43.98767587 -59.50390625 36.65625 C-60.22774845 28.27060645 -56.15683286 21.78453643 -52.1484375 14.7578125 C-51.53838867 13.66533203 -51.53838867 13.66533203 -50.91601562 12.55078125 C-49.6325295 10.2573068 -48.33240471 7.97433108 -47.0234375 5.6953125 C-46.61625488 4.98109131 -46.20907227 4.26687012 -45.78955078 3.53100586 C-40.23099359 -5.91361237 -40.23099359 -5.91361237 -35.30859375 -8.03515625 C-22.03597843 -9.30721522 -10.90221097 -8.40478819 0 0 Z " fill="#FDFEFE" transform="translate(157.1484375,359.2421875)"/>
</svg>
