<?xml version="1.0" encoding="UTF-8"?>
<svg version="1.1" xmlns="http://www.w3.org/2000/svg" width="512" height="512">
<path d="M0 0 C1.19399414 -0.04350586 1.19399414 -0.04350586 2.41210938 -0.08789062 C14.24526384 -0.2112515 24.0657431 5.7116402 34.1875 11.25 C35.42766512 11.92173387 36.66806652 12.59303167 37.90869141 13.26391602 C46.35660625 17.84525523 54.72667095 22.55915695 63.07128906 27.32592773 C71.58683269 32.16831589 80.22729569 36.75958707 88.88372803 41.34298706 C98.06839554 46.2092571 107.15273727 51.21736469 116.17578125 56.37890625 C124.01751758 60.84266385 131.96400193 65.09076576 139.9375 69.3125 C149.77300342 74.52011167 159.51455392 79.85229832 169.17578125 85.37890625 C177.65193494 90.20379374 186.2543206 94.77456313 194.87319946 99.33721924 C204.32083017 104.34181951 213.66500338 109.49734978 222.94921875 114.80078125 C229.48252857 118.52216937 236.092651 122.0576072 242.765625 125.52075195 C248.79909046 128.66987458 254.71723669 131.99685367 260.625 135.375 C270.07117678 140.76991575 279.63279301 145.91915613 289.25 151 C298.37316071 155.82021473 307.47949135 160.65678999 316.4777832 165.70776367 C322.59699168 169.13949669 328.76399542 172.47957681 334.9375 175.8125 C342.68115228 179.9946541 350.39871682 184.21731619 358.08129883 188.51049805 C363.22131113 191.37612802 368.38961257 194.18596883 373.57006836 196.9777832 C378.69936629 199.74349671 383.8189405 202.52697671 388.9375 205.3125 C389.98357422 205.8796875 391.02964844 206.446875 392.10742188 207.03125 C395.20383888 208.7163749 398.29042487 210.41831379 401.375 212.125 C402.3033667 212.62749268 403.2317334 213.12998535 404.18823242 213.64770508 C412.0438487 218.03052275 419.87496447 223.32020066 424.3125 231.375 C424.77785156 232.21546875 425.24320312 233.0559375 425.72265625 233.921875 C431.68340539 245.65170933 432.90758175 258.36060237 429.4375 271.125 C424.90916585 284.02195168 415.77682186 292.60502594 404 298.875 C403.23131592 299.29354248 402.46263184 299.71208496 401.6706543 300.14331055 C399.09754978 301.54175352 396.5179404 302.92764491 393.9375 304.3125 C390.04037992 306.4142871 386.14518553 308.51963036 382.25 310.625 C381.23123779 311.17446289 380.21247559 311.72392578 379.1628418 312.29003906 C372.33020176 315.98498463 365.55868242 319.77487301 358.8125 323.625 C349.30038409 329.049032 339.6681477 334.21915491 329.99237061 339.34243774 C321.73773911 343.7159356 313.54713993 348.17346204 305.4375 352.8125 C296.05277451 358.18093783 286.54441808 363.28485915 276.99072266 368.34326172 C268.7366464 372.71648863 260.5466032 377.17376907 252.4375 381.8125 C243.05277451 387.18093783 233.54441808 392.28485915 223.99072266 397.34326172 C215.7366464 401.71648863 207.5466032 406.17376907 199.4375 410.8125 C190.05644801 416.17883645 180.55212976 421.28147258 171.00180054 426.33721924 C161.55416983 431.34181951 152.20999662 436.49734978 142.92578125 441.80078125 C136.39247143 445.52216937 129.782349 449.0576072 123.109375 452.52075195 C117.07590954 455.66987458 111.15776331 458.99685367 105.25 462.375 C95.80382322 467.76991575 86.24220699 472.91915613 76.625 478 C63.97529272 484.67765149 63.97529272 484.67765149 51.4375 491.5625 C44.4292944 495.48154006 37.41427505 499.38693118 30.375 503.25 C29.3746875 503.80655273 28.374375 504.36310547 27.34375 504.93652344 C18.43583843 509.80598248 10.85635497 512.88566089 0.625 512.75 C-0.20459229 512.74025146 -1.03418457 512.73050293 -1.88891602 512.72045898 C-15.37896791 512.33330408 -25.56839192 507.06713944 -34.97265625 497.3359375 C-41.95111071 488.66195062 -45.22229186 478.8925395 -45.19392776 467.88478565 C-45.1959804 467.14250472 -45.19803303 466.40022379 -45.20014787 465.6354495 C-45.20581635 463.14039798 -45.2043608 460.64540168 -45.20294189 458.15034485 C-45.20552562 456.34649329 -45.20853879 454.54264231 -45.2119453 452.73879212 C-45.22001771 447.77550281 -45.221805 442.81222796 -45.22254276 437.84893286 C-45.22439289 432.49840063 -45.23194002 427.14787591 -45.23867798 421.79734802 C-45.25226345 410.09486756 -45.25828633 398.39239053 -45.26268864 386.6899035 C-45.26545064 379.3838616 -45.26968792 372.07782102 -45.27419281 364.77178001 C-45.28638565 344.5464006 -45.296685 324.32102224 -45.3000679 304.09563923 C-45.30028747 302.80101673 -45.30050703 301.50639422 -45.30073325 300.17254074 C-45.30095153 298.87480861 -45.30116981 297.57707648 -45.3013947 296.24001914 C-45.30183817 293.61028945 -45.30228473 290.98055977 -45.30273438 288.35083008 C-45.3029558 287.04639142 -45.30317723 285.74195276 -45.30340537 284.39798566 C-45.30735373 263.25950175 -45.32480883 242.12105231 -45.3480939 220.98258171 C-45.37180331 199.28387564 -45.38426956 177.58518687 -45.38543582 155.88646764 C-45.3863528 143.70188882 -45.39211093 131.51735492 -45.41025543 119.33278847 C-45.42565085 108.95770221 -45.43078016 98.58267474 -45.42251733 88.20757923 C-45.4186089 82.91423982 -45.41954997 77.62101881 -45.43357468 72.32769394 C-45.44630171 67.47980966 -45.44512651 62.63213291 -45.43298396 57.78424897 C-45.43102491 56.03254775 -45.43411504 54.28083189 -45.44282833 52.52915124 C-45.5065988 38.83987211 -43.7777767 28.85438847 -36.0625 17.3125 C-35.485 16.425625 -34.9075 15.53875 -34.3125 14.625 C-24.80432892 4.85271305 -13.37308223 0.15708397 0 0 Z " fill="#2195F2" transform="translate(63.0625,-0.31250000000000006)"/>
<path d="M0 0 C3.91348632 1.47944455 7.550079 3.27316212 11.2421875 5.23828125 C12.13606674 5.71342415 12.13606674 5.71342415 13.04800415 6.19816589 C14.99200429 7.23318387 16.93363762 8.27254385 18.875 9.3125 C19.881073 9.84979736 19.881073 9.84979736 20.9074707 10.39794922 C30.41977683 15.4800674 39.85117669 20.68387183 49.20532227 26.05273438 C54.66400242 29.16841282 60.17042257 32.16765849 65.73828125 35.08203125 C66.4068515 35.43316986 67.07542175 35.78430847 67.76425171 36.14608765 C71.04426974 37.86773076 74.32930499 39.57809442 77.625 41.26953125 C92.72469831 49.11243462 102.95009691 57.87495949 109 74 C111.88536166 85.04837849 110.73187039 97.68796874 106 108 C100.19982182 117.78858704 93.00382799 124.26974196 83.0625 129.5625 C81.90947388 130.19031372 81.90947388 130.19031372 80.7331543 130.83081055 C78.16004978 132.22925352 75.5804404 133.61514491 73 135 C69.10287992 137.1017871 65.20768553 139.20713036 61.3125 141.3125 C60.29373779 141.86196289 59.27497559 142.41142578 58.2253418 142.97753906 C51.39270176 146.67248463 44.62118242 150.46237301 37.875 154.3125 C28.36288409 159.736532 18.7306477 164.90665491 9.05487061 170.02993774 C0.80023911 174.4034356 -7.39036007 178.86096204 -15.5 183.5 C-24.88472549 188.86843783 -34.39308192 193.97235915 -43.94677734 199.03076172 C-52.2008536 203.40398863 -60.3908968 207.86126907 -68.5 212.5 C-77.88472549 217.86843783 -87.39308192 222.97235915 -96.94677734 228.03076172 C-105.2008536 232.40398863 -113.3908968 236.86126907 -121.5 241.5 C-130.88105199 246.86633645 -140.38537024 251.96897258 -149.93569946 257.02471924 C-159.38333017 262.02931951 -168.72750338 267.18484978 -178.01171875 272.48828125 C-184.54502857 276.20966937 -191.155151 279.7451072 -197.828125 283.20825195 C-203.86159046 286.35737458 -209.77973669 289.68435367 -215.6875 293.0625 C-225.13367678 298.45741575 -234.69529301 303.60665613 -244.3125 308.6875 C-256.96220728 315.36515149 -256.96220728 315.36515149 -269.5 322.25 C-276.5082056 326.16904006 -283.52322495 330.07443118 -290.5625 333.9375 C-291.5628125 334.49405273 -292.563125 335.05060547 -293.59375 335.62402344 C-302.50501473 340.49531547 -310.07907169 343.56698377 -320.3125 343.4375 C-321.1362915 343.43210205 -321.96008301 343.4267041 -322.80883789 343.42114258 C-331.39194295 343.20872689 -339.21485194 341.49423822 -346 336 C-344.4181616 332.11611344 -341.77190147 329.49833938 -338.8359375 326.60546875 C-338.06958481 325.83980339 -338.06958481 325.83980339 -337.28775024 325.05867004 C-336.20575408 323.97968943 -335.12133401 322.90313476 -334.03466797 321.82885742 C-332.39631724 320.20858205 -330.76593063 318.58063068 -329.13671875 316.95117188 C-324.2084194 312.04012544 -319.22986591 307.24799182 -313.93994141 302.72387695 C-309.9445907 299.1735156 -306.24766458 295.30781971 -302.5 291.5 C-297.49079531 286.41039074 -292.45977219 281.46995399 -287.04101562 276.81835938 C-283.01503106 273.23157312 -279.28078502 269.34147178 -275.5 265.5 C-270.49079531 260.41039074 -265.45977219 255.46995399 -260.04101562 250.81835938 C-256.01503106 247.23157312 -252.28078502 243.34147178 -248.5 239.5 C-243.49079531 234.41039074 -238.45977219 229.46995399 -233.04101562 224.81835938 C-229.01503106 221.23157312 -225.28078502 217.34147178 -221.5 213.5 C-216.49079531 208.41039074 -211.45977219 203.46995399 -206.04101562 198.81835938 C-202.01503106 195.23157312 -198.28078502 191.34147178 -194.5 187.5 C-189.49079531 182.41039074 -184.45977219 177.46995399 -179.04101562 172.81835938 C-175.01503106 169.23157312 -171.28078502 165.34147178 -167.5 161.5 C-162.49079531 156.41039074 -157.45977219 151.46995399 -152.04101562 146.81835938 C-148.01503106 143.23157312 -144.28078502 139.34147178 -140.5 135.5 C-135.49079531 130.41039074 -130.45977219 125.46995399 -125.04101562 120.81835938 C-121.01503106 117.23157312 -117.28078502 113.34147178 -113.5 109.5 C-108.48072491 104.40015869 -103.43954375 99.44816517 -98.00976562 94.78710938 C-94.1669081 91.36999116 -90.60391313 87.66541335 -87 84 C-82.15359596 79.07089282 -77.27002381 74.31027789 -72.02734375 69.8046875 C-68.18001943 66.37990169 -64.60985315 62.67145474 -61 59 C-56.15359596 54.07089282 -51.27002381 49.31027789 -46.02734375 44.8046875 C-42.18001943 41.37990169 -38.60985315 37.67145474 -35 34 C-26.5784628 25.43475056 -26.5784628 25.43475056 -22.03125 21.52734375 C-17.2808006 17.4449263 -12.90348994 13.01260669 -8.5 8.5625 C-7.67757813 7.73556641 -6.85515625 6.90863281 -6.0078125 6.05664062 C-4.00287887 4.04005041 -2.00033747 2.02114764 0 0 Z " fill="#F34336" transform="translate(384,169)"/>
<path d="M0 0 C1.19399414 -0.04350586 1.19399414 -0.04350586 2.41210938 -0.08789062 C14.24526384 -0.2112515 24.0657431 5.7116402 34.1875 11.25 C35.42766512 11.92173387 36.66806652 12.59303167 37.90869141 13.26391602 C46.35660625 17.84525523 54.72667095 22.55915695 63.07128906 27.32592773 C71.58683269 32.16831589 80.22729569 36.75958707 88.88372803 41.34298706 C98.06839554 46.2092571 107.15273727 51.21736469 116.17578125 56.37890625 C124.01751758 60.84266385 131.96400193 65.09076576 139.9375 69.3125 C149.77300342 74.52011167 159.51455392 79.85229832 169.17578125 85.37890625 C177.65193494 90.20379374 186.2543206 94.77456313 194.87319946 99.33721924 C204.32083017 104.34181951 213.66500338 109.49734978 222.94921875 114.80078125 C229.48252857 118.52216937 236.092651 122.0576072 242.765625 125.52075195 C248.79908813 128.66987336 254.71726969 131.99679853 260.625 135.375 C270.79588551 141.18493339 281.10922302 146.69765045 291.46566772 152.16650391 C301.37552409 157.40032015 311.2307026 162.70874032 320.9375 168.3125 C319.37814367 172.05311812 317.06695322 174.42715636 314.2109375 177.26953125 C313.7444278 177.73558273 313.27791809 178.20163422 312.79727173 178.68180847 C311.8094326 179.66663345 310.81917105 180.64903381 309.82666016 181.62915039 C308.33316953 183.10458043 306.8476425 184.5876574 305.36328125 186.07226562 C300.6726285 190.74492958 295.90991324 195.27369033 290.88134766 199.5847168 C287.06034959 202.98099956 283.52022896 206.66863232 279.9375 210.3125 C275.09109596 215.24160718 270.20752381 220.00222211 264.96484375 224.5078125 C261.11751943 227.93259831 257.54735315 231.64104526 253.9375 235.3125 C246.61167163 242.7633425 238.99415143 249.66576257 230.9375 256.3125 C230.3084375 255.67183594 229.679375 255.03117188 229.03125 254.37109375 C228.1753125 253.50613281 227.319375 252.64117187 226.4375 251.75 C225.18453125 250.47962891 225.18453125 250.47962891 223.90625 249.18359375 C221.74432216 247.04490438 219.49479562 245.04696945 217.1875 243.06640625 C211.49203 238.12992889 206.28744403 232.70818952 201.00390625 227.33984375 C197.40813773 223.70910828 193.81603044 220.14192643 189.9375 216.8125 C184.30937243 211.98117614 179.20313402 206.62252622 174.00390625 201.33984375 C170.40813773 197.70910828 166.81603044 194.14192643 162.9375 190.8125 C157.30937243 185.98117614 152.20313402 180.62252622 147.00390625 175.33984375 C143.40813773 171.70910828 139.81603044 168.14192643 135.9375 164.8125 C130.30937243 159.98117614 125.20313402 154.62252622 120.00390625 149.33984375 C116.40813773 145.70910828 112.81603044 142.14192643 108.9375 138.8125 C103.30937243 133.98117614 98.20313402 128.62252622 93.00390625 123.33984375 C89.40813773 119.70910828 85.81603044 116.14192643 81.9375 112.8125 C76.30937243 107.98117614 71.20313402 102.62252622 66.00390625 97.33984375 C62.40813773 93.70910828 58.81603044 90.14192643 54.9375 86.8125 C49.30937243 81.98117614 44.20313402 76.62252622 39.00390625 71.33984375 C35.40813773 67.70910828 31.81603044 64.14192643 27.9375 60.8125 C22.30937243 55.98117614 17.20313402 50.62252622 12.00390625 45.33984375 C8.41457614 41.71560929 4.82981026 38.15411844 0.95703125 34.83203125 C-3.91535718 30.6503133 -8.37268569 26.07260806 -12.875 21.5 C-14.54583301 19.80367754 -16.2189097 18.10956127 -17.89453125 16.41796875 C-18.62389893 15.67699951 -19.3532666 14.93603027 -20.10473633 14.17260742 C-22.12364915 12.14824963 -22.12364915 12.14824963 -25.0625 10.3125 C-24.89453125 8.48046875 -24.89453125 8.48046875 -24.0625 6.3125 C-21.69921875 4.86328125 -21.69921875 4.86328125 -18.75 3.625 C-17.30173828 3.00044922 -17.30173828 3.00044922 -15.82421875 2.36328125 C-10.46705146 0.32498139 -5.68497559 0.06677732 0 0 Z " fill="#4BAE50" transform="translate(63.0625,-0.31250000000000006)"/>
<path d="M0 0 C3.91348632 1.47944455 7.550079 3.27316212 11.2421875 5.23828125 C11.83810699 5.55504318 12.43402649 5.87180511 13.04800415 6.19816589 C14.99200429 7.23318387 16.93363762 8.27254385 18.875 9.3125 C19.881073 9.84979736 19.881073 9.84979736 20.9074707 10.39794922 C30.41977683 15.4800674 39.85117669 20.68387183 49.20532227 26.05273438 C54.66400242 29.16841282 60.17042257 32.16765849 65.73828125 35.08203125 C66.4068515 35.43316986 67.07542175 35.78430847 67.76425171 36.14608765 C71.04426974 37.86773076 74.32930499 39.57809442 77.625 41.26953125 C92.72469831 49.11243462 102.95009691 57.87495949 109 74 C111.88536166 85.04837849 110.73187039 97.68796874 106 108 C100.19982182 117.78858704 93.00382799 124.26974196 83.0625 129.5625 C81.90947388 130.19031372 81.90947388 130.19031372 80.7331543 130.83081055 C78.16004978 132.22925352 75.5804404 133.61514491 73 135 C69.10287995 137.10178708 65.20765351 139.20707116 61.3125 141.3125 C60.29808838 141.8597876 59.28367676 142.4070752 58.23852539 142.97094727 C51.27964276 146.73510259 44.37671551 150.58801808 37.5 154.5 C29.26863624 159.17746423 21.00097081 163.78240513 12.6875 168.3125 C11.64851563 168.88226563 10.60953125 169.45203125 9.5390625 170.0390625 C8.58128906 170.55855469 7.62351562 171.07804688 6.63671875 171.61328125 C5.78811279 172.07516846 4.93950684 172.53705566 4.06518555 173.01293945 C2 174 2 174 0 174 C-1.7134198 172.3814364 -3.37208539 170.70453793 -5 169 C-5.84216064 168.15260254 -6.68432129 167.30520508 -7.55200195 166.43212891 C-8.43847412 165.53929199 -9.32494629 164.64645508 -10.23828125 163.7265625 C-11.7465923 162.21086753 -13.2553905 160.69565937 -14.7644043 159.18066406 C-15.7920057 158.1480389 -16.81870714 157.11451732 -17.84448242 156.08007812 C-23.10547283 150.77601331 -28.38458682 145.5702208 -34.06713867 140.71240234 C-38.700296 136.60769532 -42.95142948 132.08352906 -47.2890625 127.671875 C-50.76640264 124.158686 -54.25002899 120.72274736 -58 117.5 C-63.39677457 112.86197988 -68.30354364 107.74247097 -73.2890625 102.671875 C-77.53730276 98.37983845 -81.82312244 94.3501665 -86.56640625 90.60546875 C-88 89 -88 89 -88 85 C-86.09375 82.66796875 -86.09375 82.66796875 -83.5 80.1875 C-82.6646875 79.37667969 -81.829375 78.56585938 -80.96875 77.73046875 C-78.76823207 75.67283167 -76.50234156 73.70300821 -74.21875 71.73828125 C-69.58873009 67.70996718 -65.3008033 63.37419585 -61 59 C-56.15359596 54.07089282 -51.27002381 49.31027789 -46.02734375 44.8046875 C-42.18001943 41.37990169 -38.60985315 37.67145474 -35 34 C-26.5784628 25.43475056 -26.5784628 25.43475056 -22.03125 21.52734375 C-17.2808006 17.4449263 -12.90348994 13.01260669 -8.5 8.5625 C-7.26636719 7.32209961 -7.26636719 7.32209961 -6.0078125 6.05664062 C-4.00287887 4.04005041 -2.00033747 2.02114764 0 0 Z " fill="#FEC007" transform="translate(384,169)"/>
</svg>
